<?xml version="1.0" encoding="utf-8"?>
<!-- Generator: Adobe Illustrator 16.0.0, SVG Export Plug-In . SVG Version: 6.00 Build 0)  -->
<!DOCTYPE svg PUBLIC "-//W3C//DTD SVG 1.1//EN" "http://www.w3.org/Graphics/SVG/1.1/DTD/svg11.dtd">
<svg version="1.1" id="Layer_1" xmlns="http://www.w3.org/2000/svg" xmlns:xlink="http://www.w3.org/1999/xlink" x="0px" y="0px"
	 width="357.333px" height="99px" viewBox="0 0 357.333 99" enable-background="new 0 0 357.333 99" xml:space="preserve">
<g>
	<path fill="#231F20" d="M51.075,97c-0.46,0.354-1.042,0.598-1.748,0.736c-0.706,0.138-1.457,0.207-2.254,0.207
		c-0.966,0-1.871-0.166-2.714-0.495c-0.843-0.329-1.58-0.831-2.208-1.507c-0.629-0.674-1.127-1.537-1.495-2.588
		c-0.368-1.049-0.552-2.295-0.552-3.736c0-1.503,0.203-2.779,0.609-3.83c0.406-1.051,0.943-1.908,1.61-2.576
		c0.667-0.666,1.415-1.152,2.243-1.46s1.671-0.46,2.53-0.46c0.92,0,1.671,0.05,2.254,0.148c0.583,0.102,1.081,0.233,1.495,0.402
		l-0.46,1.702c-0.736-0.368-1.786-0.552-3.151-0.552c-0.629,0-1.25,0.113-1.863,0.345c-0.614,0.229-1.162,0.604-1.645,1.127
		s-0.871,1.204-1.162,2.048c-0.292,0.844-0.437,1.879-0.437,3.104c0,1.104,0.138,2.069,0.414,2.897
		c0.276,0.827,0.655,1.519,1.138,2.069c0.483,0.552,1.05,0.966,1.702,1.242c0.652,0.274,1.361,0.414,2.127,0.414
		c0.69,0,1.292-0.069,1.806-0.207c0.514-0.14,0.947-0.314,1.299-0.529L51.075,97z"/>
	<path fill="#231F20" d="M75.846,97.667h-9.522V81.566h1.909v14.397h7.613V97.667L75.846,97.667z"/>
	<path fill="#231F20" d="M96.554,93.205H90.65l-1.602,4.462h-1.909l6.095-16.353h0.874l6.118,16.353h-2.024L96.554,93.205z
		 M91.268,91.549h4.714l-1.785-4.898l-0.572-2.438h-0.023l-0.572,2.484L91.268,91.549z"/>
	<path fill="#231F20" d="M122.053,93.573c0-0.646-0.192-1.169-0.575-1.576c-0.383-0.405-0.862-0.767-1.438-1.081
		c-0.575-0.312-1.2-0.609-1.875-0.885c-0.675-0.276-1.299-0.609-1.875-1.002c-0.575-0.391-1.054-0.873-1.438-1.448
		c-0.383-0.574-0.575-1.308-0.575-2.196c0-1.257,0.437-2.254,1.311-2.99c0.874-0.734,2.116-1.104,3.726-1.104
		c0.935,0,1.786,0.068,2.553,0.207c0.767,0.139,1.364,0.314,1.794,0.529l-0.575,1.701c-0.353-0.174-0.87-0.34-1.552-0.498
		c-0.683-0.158-1.453-0.237-2.312-0.237c-1.012,0-1.771,0.226-2.277,0.679c-0.506,0.452-0.759,0.984-0.759,1.598
		c0,0.6,0.191,1.098,0.575,1.496c0.383,0.398,0.862,0.756,1.438,1.069c0.575,0.313,1.2,0.624,1.875,0.931
		c0.674,0.309,1.299,0.664,1.875,1.07c0.575,0.406,1.054,0.893,1.438,1.46c0.383,0.567,0.575,1.272,0.575,2.116
		c0,0.689-0.123,1.311-0.368,1.863c-0.246,0.552-0.606,1.026-1.081,1.426c-0.476,0.398-1.051,0.705-1.725,0.92
		c-0.675,0.215-1.441,0.322-2.3,0.322c-1.15,0-2.101-0.09-2.852-0.266c-0.751-0.177-1.334-0.371-1.748-0.587l0.644-1.702
		c0.353,0.194,0.874,0.385,1.564,0.571s1.464,0.28,2.323,0.28c0.506,0,0.981-0.051,1.426-0.149c0.444-0.1,0.828-0.261,1.15-0.483
		c0.322-0.222,0.579-0.502,0.771-0.84C121.957,94.432,122.053,94.033,122.053,93.573z"/>
	<path fill="#231F20" d="M146.686,93.573c0-0.646-0.192-1.169-0.575-1.576c-0.383-0.405-0.862-0.767-1.438-1.081
		c-0.575-0.312-1.2-0.609-1.875-0.885c-0.675-0.276-1.299-0.609-1.875-1.002c-0.575-0.391-1.054-0.873-1.438-1.448
		c-0.383-0.574-0.575-1.308-0.575-2.196c0-1.257,0.437-2.254,1.311-2.99c0.874-0.734,2.116-1.104,3.726-1.104
		c0.935,0,1.786,0.068,2.553,0.207s1.364,0.314,1.794,0.529l-0.575,1.701c-0.353-0.174-0.87-0.34-1.552-0.498
		c-0.683-0.158-1.453-0.237-2.312-0.237c-1.012,0-1.771,0.226-2.277,0.679c-0.506,0.452-0.759,0.984-0.759,1.598
		c0,0.6,0.191,1.098,0.575,1.496c0.383,0.398,0.862,0.756,1.438,1.069c0.575,0.313,1.2,0.624,1.875,0.931
		c0.674,0.309,1.299,0.664,1.875,1.07c0.575,0.406,1.054,0.893,1.438,1.46c0.383,0.567,0.575,1.272,0.575,2.116
		c0,0.689-0.123,1.311-0.368,1.863c-0.246,0.552-0.606,1.026-1.081,1.426c-0.476,0.398-1.051,0.705-1.725,0.92
		c-0.675,0.215-1.441,0.322-2.3,0.322c-1.15,0-2.101-0.09-2.852-0.266c-0.751-0.177-1.334-0.371-1.748-0.587l0.644-1.702
		c0.353,0.194,0.874,0.385,1.564,0.571s1.464,0.28,2.323,0.28c0.506,0,0.981-0.051,1.426-0.149c0.444-0.1,0.828-0.261,1.15-0.483
		c0.322-0.222,0.579-0.502,0.771-0.84C146.589,94.432,146.686,94.033,146.686,93.573z"/>
	<path fill="#231F20" d="M164.487,81.566h1.909v16.101h-1.909V81.566z"/>
	<path fill="#231F20" d="M193.467,97c-0.461,0.354-1.043,0.598-1.748,0.736c-0.705,0.138-1.457,0.207-2.254,0.207
		c-0.967,0-1.871-0.166-2.715-0.495s-1.58-0.831-2.207-1.507c-0.629-0.674-1.127-1.537-1.496-2.588
		c-0.367-1.049-0.551-2.295-0.551-3.736c0-1.503,0.203-2.779,0.608-3.83c0.406-1.051,0.942-1.908,1.608-2.576
		c0.668-0.666,1.416-1.152,2.244-1.46s1.67-0.46,2.528-0.46c0.921,0,1.673,0.05,2.255,0.148c0.582,0.102,1.081,0.233,1.494,0.402
		l-0.46,1.702c-0.735-0.368-1.786-0.552-3.149-0.552c-0.629,0-1.25,0.113-1.863,0.345s-1.161,0.604-1.645,1.127
		c-0.482,0.521-0.871,1.204-1.162,2.048s-0.438,1.879-0.438,3.104c0,1.104,0.139,2.069,0.414,2.897
		c0.275,0.827,0.654,1.519,1.139,2.069s1.051,0.966,1.702,1.242c0.651,0.274,1.36,0.414,2.127,0.414c0.69,0,1.292-0.069,1.806-0.207
		c0.515-0.14,0.947-0.314,1.301-0.529L193.467,97z"/>
	<path fill="#231F20" d="M233.625,93.573c0-0.646-0.192-1.169-0.576-1.576c-0.383-0.405-0.861-0.767-1.438-1.081
		c-0.574-0.312-1.199-0.609-1.875-0.885c-0.675-0.276-1.299-0.609-1.874-1.002c-0.575-0.391-1.055-0.873-1.438-1.448
		c-0.383-0.574-0.574-1.308-0.574-2.196c0-1.257,0.438-2.254,1.311-2.99c0.875-0.734,2.116-1.104,3.728-1.104
		c0.935,0,1.786,0.068,2.553,0.207s1.364,0.314,1.794,0.529l-0.574,1.701c-0.354-0.174-0.871-0.34-1.553-0.498
		c-0.684-0.158-1.453-0.237-2.312-0.237c-1.012,0-1.771,0.226-2.276,0.679c-0.506,0.452-0.759,0.984-0.759,1.598
		c0,0.6,0.191,1.098,0.574,1.496s0.863,0.756,1.438,1.069c0.574,0.313,1.199,0.624,1.874,0.931c0.676,0.309,1.301,0.664,1.875,1.07
		s1.055,0.893,1.438,1.46s0.574,1.272,0.574,2.116c0,0.689-0.121,1.311-0.367,1.863c-0.246,0.552-0.605,1.026-1.08,1.426
		c-0.477,0.398-1.051,0.705-1.727,0.92c-0.675,0.215-1.441,0.322-2.3,0.322c-1.149,0-2.101-0.09-2.853-0.266
		c-0.752-0.177-1.334-0.371-1.748-0.587l0.645-1.702c0.354,0.194,0.874,0.385,1.564,0.571c0.688,0.187,1.463,0.28,2.322,0.28
		c0.506,0,0.98-0.051,1.426-0.149c0.444-0.1,0.828-0.261,1.149-0.483c0.322-0.222,0.579-0.502,0.771-0.84
		C233.529,94.432,233.625,94.033,233.625,93.573z"/>
	<path fill="#231F20" d="M260.625,90.284h-7.728v7.383h-1.909V81.566h1.909v7.016h7.728v-7.016h1.91v16.101h-1.91V90.284z"/>
	<path fill="#231F20" d="M278.2,89.617c0-2.684,0.566-4.742,1.701-6.176c1.135-1.435,2.752-2.15,4.854-2.15
		c1.135,0,2.115,0.199,2.943,0.598c0.828,0.399,1.514,0.963,2.059,1.691s0.947,1.602,1.207,2.621
		c0.262,1.021,0.393,2.158,0.393,3.416c0,2.684-0.57,4.742-1.714,6.176s-2.771,2.15-4.888,2.15c-1.119,0-2.09-0.2-2.909-0.6
		c-0.82-0.398-1.503-0.962-2.048-1.689c-0.543-0.729-0.946-1.603-1.207-2.622C278.329,92.014,278.2,90.874,278.2,89.617z
		 M280.223,89.617c0,0.89,0.088,1.732,0.265,2.529s0.448,1.498,0.815,2.104c0.367,0.604,0.84,1.089,1.414,1.448
		c0.576,0.359,1.254,0.541,2.035,0.541c1.427,0,2.545-0.541,3.358-1.622c0.812-1.081,1.22-2.748,1.22-5.002
		c0-0.874-0.088-1.714-0.266-2.519c-0.176-0.807-0.452-1.512-0.828-2.117c-0.376-0.604-0.852-1.088-1.426-1.448
		c-0.575-0.359-1.262-0.54-2.059-0.54c-1.412,0-2.52,0.54-3.323,1.621C280.625,85.693,280.223,87.363,280.223,89.617z"/>
	<path fill="#231F20" d="M307.018,81.729c0.582-0.139,1.211-0.229,1.887-0.275c0.674-0.046,1.342-0.069,2-0.069
		c0.705,0,1.422,0.069,2.15,0.207c0.729,0.14,1.393,0.392,1.99,0.761c0.598,0.366,1.084,0.873,1.459,1.518
		c0.377,0.645,0.564,1.465,0.564,2.461c0,0.98-0.178,1.811-0.529,2.482c-0.354,0.677-0.82,1.225-1.402,1.646
		c-0.584,0.422-1.25,0.726-2.002,0.909s-1.525,0.275-2.322,0.275c-0.076,0-0.203,0-0.381,0c-0.176,0-0.359-0.004-0.551-0.012
		c-0.193-0.008-0.379-0.02-0.562-0.035c-0.186-0.015-0.314-0.029-0.393-0.046v6.118h-1.908V81.729L307.018,81.729z M310.952,83.039
		c-0.398,0-0.781,0.008-1.15,0.023c-0.367,0.015-0.66,0.053-0.873,0.113v6.67c0.076,0.031,0.199,0.051,0.367,0.059
		s0.346,0.016,0.529,0.022c0.184,0.009,0.359,0.013,0.529,0.013c0.168,0,0.289,0,0.367,0c0.521,0,1.037-0.051,1.553-0.15
		c0.514-0.1,0.979-0.279,1.391-0.54c0.414-0.261,0.748-0.629,1.002-1.104c0.252-0.475,0.379-1.08,0.379-1.815
		c0-0.629-0.119-1.154-0.355-1.576c-0.238-0.421-0.553-0.758-0.943-1.012c-0.391-0.253-0.832-0.433-1.322-0.54
		C311.932,83.093,311.442,83.039,310.952,83.039z"/>
</g>
<g>
	<path fill="#231F20" d="M57.401,59.062c0,0.473-0.416,0.709-1.247,0.709c-0.555,0-1.053-0.028-1.496-0.084l-10.555-0.332
		l-10.555,0.332c-0.388,0.056-0.804,0.084-1.247,0.084c-1.109,0-1.662-0.289-1.662-0.871c0-0.639,0.748-0.957,2.244-0.957
		c4.875-0.055,7.314-0.543,7.314-1.467c0-0.054-0.057-0.271-0.17-0.65l-0.679-2.198l-0.426-1.159
		c-0.499-1.72-1.715-5.518-3.653-11.397H17.503c-3.322,8.866-4.981,13.962-4.981,15.292c0,0.776,0.333,1.245,0.998,1.413
		c0.166,0.056,1.55,0.166,4.155,0.332c1.606,0.056,2.41,0.332,2.41,0.83c0,0.556-0.721,0.832-2.161,0.832
		c-2.549,0-5.514-0.111-8.893-0.332C8.2,59.384,7.34,59.355,6.455,59.355c-0.887,0-1.745,0.092-2.576,0.275
		c-0.443,0.092-0.803,0.139-1.081,0.139c-0.775,0-1.164-0.248-1.164-0.75c0-0.5,0.873-0.777,2.618-0.834
		c1.745-0.055,3.005-0.318,3.781-0.791c0.775-0.474,1.384-1.375,1.829-2.711C16.989,34.226,22.791,17.798,27.266,5.4
		c0.129-0.653,0.387-1.388,0.774-2.206l0.355-1.517c0.167-0.609,0.387-0.914,0.665-0.914c0.166,0,0.304,0.167,0.416,0.499
		c0.719,2.161,2.354,6.678,4.902,13.547c1.995,5.375,6.953,18.866,14.876,40.475c0.443,1.254,1.01,2.052,1.704,2.393
		c0.692,0.343,2.12,0.542,4.282,0.599C56.68,58.328,57.401,58.59,57.401,59.062z M34.886,39.16
		c-0.902-2.494-2.397-6.623-4.484-12.387l-3.993-11.52c-2.336,6.131-5.145,14.1-8.425,23.907H34.886z"/>
	<path fill="#231F20" d="M129.623,2.343c0,0.445-0.527,0.696-1.579,0.75c-2.439,0.056-4.073,0.417-4.904,1.084
		s-1.69,2.223-2.576,4.667l-2.826,7.751c-6.815,18.726-11.608,33.089-14.378,43.09c-0.167,0.666-0.444,0.998-0.832,0.998
		c-0.444,0-1.358-2.078-2.742-6.232c-2.494-7.591-4.434-13.298-5.818-17.121c-1.483-4.215-3.68-10.511-6.59-18.887L83.329,7.245
		c-0.555-1.55-1.164-2.589-1.829-3.116c-0.665-0.526-1.772-0.817-3.323-0.873c-1.828-0.054-2.922-0.11-3.283-0.166
		c-0.36-0.055-0.54-0.276-0.54-0.665c0-0.499,0.554-0.748,1.662-0.748h0.748c0.997,0,2.728,0.042,5.194,0.125
		c2.465,0.083,4.224,0.125,5.277,0.125c0.277,0,1.343-0.042,3.2-0.125c1.856-0.083,4.501-0.125,7.937-0.125h1.164
		c0.997,0,1.496,0.252,1.496,0.756c0,0.555-0.998,0.857-2.992,0.907l-5.07,0.174c-1.163,0.057-1.745,0.434-1.745,1.127
		c0,0.116,0.053,0.347,0.161,0.694l0.642,2.254c0.111,0.444,2.822,8.249,8.13,23.415c0.886,2.613,2.576,7.586,5.07,14.921
		c9.123-25.893,13.685-39.504,13.685-40.835c0-1.276-1.36-1.859-4.079-1.749h-2.58c-0.667,0-0.999-0.246-0.999-0.739
		c0-0.615,0.831-0.923,2.494-0.923c0.332,0,1.274,0,2.826,0c1.55,0.167,2.687,0.25,3.407,0.25h2.66l5.485-0.25
		C129.124,1.677,129.623,1.899,129.623,2.343z"/>
	<path fill="#231F20" d="M203.256,59.062c0,0.473-0.416,0.709-1.246,0.709c-0.555,0-1.053-0.028-1.496-0.084l-10.555-0.332
		l-10.556,0.332c-0.388,0.056-0.804,0.084-1.247,0.084c-1.109,0-1.662-0.289-1.662-0.871c0-0.639,0.748-0.957,2.244-0.957
		c4.875-0.055,7.313-0.543,7.313-1.467c0-0.054-0.058-0.271-0.171-0.65l-0.678-2.198l-0.428-1.159
		c-0.498-1.72-1.715-5.518-3.652-11.397h-17.766c-3.322,8.866-4.981,13.962-4.981,15.292c0,0.776,0.333,1.245,0.998,1.413
		c0.166,0.056,1.55,0.166,4.155,0.332c1.606,0.056,2.41,0.332,2.41,0.83c0,0.556-0.721,0.832-2.161,0.832
		c-2.549,0-5.514-0.111-8.893-0.332c-0.832-0.056-1.691-0.084-2.577-0.084c-0.887,0-1.745,0.093-2.576,0.276
		c-0.443,0.093-0.803,0.14-1.081,0.14c-0.775,0-1.164-0.25-1.164-0.75s0.873-0.778,2.618-0.834s3.005-0.319,3.781-0.793
		c0.775-0.473,1.384-1.375,1.829-2.709c7.126-20.458,12.929-36.888,17.403-49.286c0.129-0.653,0.387-1.388,0.774-2.206l0.355-1.517
		c0.167-0.609,0.387-0.914,0.665-0.914c0.166,0,0.304,0.167,0.416,0.499c0.719,2.161,2.354,6.678,4.902,13.547
		c1.994,5.375,6.952,18.866,14.876,40.475c0.442,1.254,1.011,2.052,1.704,2.393c0.691,0.343,2.119,0.542,4.281,0.599
		C202.538,58.328,203.256,58.59,203.256,59.062z M180.743,39.16c-0.902-2.494-2.396-6.623-4.484-12.387l-3.993-11.52
		c-2.336,6.131-5.145,14.1-8.425,23.907H180.743z"/>
	<path fill="#231F20" d="M277.223,30.766c0,9.781-3.406,17.393-10.221,22.837c-4.988,4.002-11.664,6.002-20.031,6.002
		c-0.221,0-1.205,0-2.949,0c-1.746,0-4.281,0-7.605,0h-4.153h-6.566c-0.389,0-0.803,0-1.245,0c-1.054,0-1.58-0.276-1.58-0.832
		c0-0.498,0.887-0.748,2.659-0.748c2.271,0,3.685-0.416,4.238-1.246c0.221-0.387,0.332-1.439,0.332-3.158V8.824
		c0-2.714-0.207-4.293-0.623-4.737c-0.416-0.443-1.843-0.665-4.278-0.665c-1.275,0-1.912-0.304-1.912-0.914
		c0-0.443,0.471-0.665,1.412-0.665c-0.056,0,0.555,0,1.829,0c1.272,0,2.521,0,3.738,0h8.896c9.973,0,17.037,0.695,21.19,2.084
		c5.041,1.667,9.112,4.959,12.219,9.877C275.672,18.722,277.223,24.376,277.223,30.766z M267.917,30.432
		c0-9.225-1.803-15.991-5.401-20.298c-3.604-4.307-9.228-6.461-16.871-6.461c-3.713,0-5.957,0.389-6.731,1.167
		c-0.332,0.39-0.498,1.724-0.498,4.001v44.349c0,1.557,0.041,2.502,0.123,2.836c0.084,0.334,0.317,0.611,0.707,0.834
		c1.33,0.666,4.127,1,8.395,1c5.984,0,10.805-2.111,14.461-6.336C265.975,47.077,267.917,40.046,267.917,30.432z"/>
	<path fill="#231F20" d="M356.01,59.062c0,0.473-0.416,0.709-1.246,0.709c-0.555,0-1.053-0.028-1.496-0.084l-10.555-0.332
		l-10.555,0.332c-0.391,0.056-0.807,0.084-1.248,0.084c-1.109,0-1.662-0.289-1.662-0.871c0-0.639,0.748-0.957,2.244-0.957
		c4.875-0.055,7.312-0.543,7.312-1.467c0-0.054-0.057-0.271-0.17-0.65l-0.68-2.198l-0.426-1.159
		c-0.498-1.72-1.715-5.518-3.652-11.397h-17.766c-3.322,8.866-4.982,13.962-4.982,15.292c0,0.776,0.334,1.245,0.998,1.413
		c0.166,0.056,1.551,0.166,4.156,0.332c1.605,0.056,2.41,0.332,2.41,0.83c0,0.556-0.723,0.832-2.162,0.832
		c-2.549,0-5.514-0.111-8.893-0.332c-0.832-0.056-1.691-0.084-2.576-0.084c-0.889,0-1.746,0.093-2.576,0.276
		c-0.443,0.093-0.803,0.14-1.08,0.14c-0.775,0-1.164-0.25-1.164-0.75s0.873-0.778,2.617-0.834c1.746-0.056,3.006-0.319,3.781-0.793
		c0.775-0.473,1.385-1.375,1.828-2.709c7.127-20.458,12.93-36.888,17.404-49.286c0.129-0.653,0.387-1.388,0.773-2.206l0.355-1.517
		c0.166-0.609,0.387-0.914,0.664-0.914c0.166,0,0.305,0.167,0.416,0.499c0.719,2.161,2.354,6.678,4.902,13.547
		c1.994,5.375,6.953,18.866,14.877,40.475c0.441,1.254,1.01,2.052,1.703,2.393c0.691,0.343,2.119,0.542,4.281,0.599
		C355.292,58.328,356.01,58.59,356.01,59.062z M333.497,39.16c-0.902-2.494-2.398-6.623-4.484-12.387l-3.992-11.52
		c-2.338,6.131-5.146,14.1-8.426,23.907H333.497z"/>
</g>
</svg>
